<svg xmlns="http://www.w3.org/2000/svg" viewBox="0 0 512 512" width="512" height="512">
  <defs>
    <linearGradient id="bg" x1="0" y1="0" x2="1" y2="1">
      <stop offset="0" stop-color="#fb923c"/>
      <stop offset="1" stop-color="#e8590c"/>
    </linearGradient>
  </defs>
  <rect width="512" height="512" rx="112" fill="url(#bg)"/>
  <!-- Vapor -->
  <g fill="none" stroke="#fff7ed" stroke-width="14" stroke-linecap="round" opacity="0.9">
    <path d="M196 150 q-22 -26 0 -52"/>
    <path d="M256 150 q-22 -26 0 -52"/>
    <path d="M316 150 q-22 -26 0 -52"/>
  </g>
  <!-- Tazón -->
  <path d="M104 214 h304 a16 16 0 0 1 16 16 c0 86 -70 156 -156 156 h-24 c-86 0 -156 -70 -156 -156 a16 16 0 0 1 16 -16 z" fill="#fff7ed"/>
  <path d="M104 214 h304 a16 16 0 0 1 16 16 c0 18 -3 35 -9 51 H97 c-6 -16 -9 -33 -9 -51 a16 16 0 0 1 16 -16 z" fill="#ffd8a8"/>
  <!-- Cuchara -->
  <rect x="430" y="150" width="20" height="250" rx="10" fill="#fff7ed" transform="rotate(20 440 275)"/>
  <ellipse cx="452" cy="168" rx="26" ry="34" fill="#fff7ed" transform="rotate(20 452 168)"/>
</svg>
